<svg xmlns="http://www.w3.org/2000/svg" enable-background="new 0 0 64 64" viewBox="0 0 64 64" id="processor-brain">
  <path fill="#34495c" d="M28.66,2.14c-0.2-0.2-0.44-0.39-0.68-0.57c-1.32-0.99-2.95-1.5-4.62-1.47c-1.98,0.04-3.83,0.86-5.21,2.29
		c-1.37,1.44-2.11,3.32-2.05,5.31c0.01,0.53,0.07,1.03,0.18,1.5c0.18,0.47,1.6,3.83,5.57,3.32c0.57-0.07,1.09,0.32,1.16,0.89
		c0.06,0.56-0.33,1.08-0.89,1.15c-0.37,0.04-0.72,0.06-1.06,0.06c-3.58,0-5.66-2.43-6.49-4.2c-0.34-0.03-0.68-0.05-1.03-0.05h-0.21
		c-2.5,0.05-4.82,1.09-6.56,2.88c-1.72,1.81-2.64,4.18-2.59,6.68c0.04,1.89,0.65,3.7,1.74,5.22l0.04,0.05
		c2.64-1.78,7.61-3.24,12.05,1.17c0.4,0.39,0.4,1.05,0.01,1.46c-0.2,0.2-0.47,0.3-0.73,0.3c-0.27,0-0.52-0.1-0.72-0.3
		C11.66,23,6.65,27.22,6.43,27.4c-0.01,0.01-0.02,0.01-0.03,0.02c-0.01,0.01-0.01,0.02-0.02,0.03c-0.21,0.15-0.37,0.28-0.53,0.39
		c-0.07,0.06-0.14,0.12-0.2,0.17c-1.52,1.27-2.75,2.84-3.56,4.58c-0.86,1.84-1.27,3.8-1.22,5.82c0.1,4.27,2.28,8.24,5.84,10.6
		c0.18,0.12,0.35,0.22,0.53,0.34c0.32,0.19,0.51,0.55,0.49,0.94c-0.02,0.27-0.02,0.53-0.03,0.81l0.01,0.2
		c0.01,0.3,0.02,0.61,0.05,0.89c0.5,5.17,4.35,9.56,9.79,11.17c0.3,0.1,0.6,0.16,0.88,0.23c1.3,0.3,2.58,0.43,3.9,0.39
		c5.35-0.48,8.26-3.12,8.58-7.87l0.14-38.79v-1.09l0.02-3.52V12.7c0.07-2.6-0.11-5.27-0.11-5.3C30.92,5.38,30.11,3.52,28.66,2.14z
		 M21.15,19.78c2.04-0.26,3.69,0.14,4.89,1.15c1.64,1.39,1.74,3.45,1.74,3.53c0.02,0.57-0.43,1.05-0.99,1.08h-0.04
		c-0.54,0-1-0.44-1.03-0.99c0-0.03-0.09-1.27-1.02-2.05c-0.73-0.62-1.84-0.85-3.29-0.67c-0.56,0.07-1.08-0.33-1.15-0.9
		C20.18,20.35,20.59,19.84,21.15,19.78z M12.55,40.47c-0.73,0.79-1.61,1.19-2.31,1.39c-0.7,0.2-1.23,0.2-1.29,0.2
		c-0.57,0-1.03-0.46-1.03-1.03c0-0.56,0.46-1.02,1.02-1.03c0.04,0,1.28-0.03,2.11-0.95c0.64-0.7,0.9-1.8,0.79-3.26
		c-0.05-0.56,0.37-1.06,0.94-1.11c0.55-0.05,1.08,0.37,1.12,0.94C14.06,37.69,13.62,39.32,12.55,40.47z M22.06,57.1
		c-0.28,0.02-0.55,0.03-0.82,0.03c-1.67,0-3.02-0.46-4.01-1.37c-1.59-1.46-1.61-3.51-1.61-3.6c0-0.57,0.47-1.03,1.03-1.03
		c0.57,0,1.03,0.46,1.03,1.02c0,0.04,0.04,1.28,0.95,2.1c0.71,0.65,1.81,0.92,3.26,0.8c0.57-0.05,1.08,0.37,1.12,0.94
		C23.05,56.55,22.63,57.06,22.06,57.1z M27.69,42.18h-0.04c-0.54,0-1-0.44-1.03-0.99c0-0.03-0.09-1.28-1.02-2.07
		c-0.73-0.61-1.84-0.83-3.29-0.66c-0.56,0.07-1.08-0.33-1.15-0.9c-0.06-0.56,0.34-1.08,0.9-1.15c2.04-0.24,3.69,0.15,4.89,1.16
		c1.64,1.39,1.74,3.45,1.74,3.53C28.7,41.68,28.25,42.16,27.69,42.18z"></path>
  <path fill="#00aeef" d="M61.91,32.51c-0.81-1.75-2.03-3.32-3.52-4.56c-0.1-0.09-0.16-0.14-0.23-0.19c-0.16-0.13-0.34-0.26-0.51-0.39
		c-0.01,0-0.02-0.02-0.03-0.03s-0.03-0.01-0.04-0.02c-0.21-0.18-5.26-4.36-10.11,0.44c-0.2,0.2-0.46,0.3-0.72,0.3
		S46.2,27.94,46,27.74c-0.39-0.4-0.39-1.05,0.01-1.46c4.44-4.41,9.41-2.94,12.06-1.17l0.05-0.07c1.06-1.49,1.67-3.29,1.71-5.19
		c0.05-2.49-0.86-4.86-2.59-6.67c-1.73-1.81-4.06-2.83-6.56-2.9c-0.42-0.01-0.83,0.02-1.25,0.06c-0.84,1.78-2.92,4.2-6.49,4.2
		c-0.34,0-0.69-0.02-1.06-0.06c-0.56-0.07-0.96-0.6-0.89-1.16c0.07-0.56,0.6-0.96,1.16-0.89c3.97,0.51,5.4-2.85,5.57-3.31
		c0.11-0.48,0.17-0.97,0.18-1.51c0.05-1.98-0.68-3.86-2.05-5.3c-1.37-1.44-3.23-2.26-5.21-2.3c-1.67-0.03-3.3,0.49-4.62,1.48
		c-0.24,0.18-0.48,0.37-0.69,0.57c-1.44,1.38-2.26,3.24-2.3,5.21c0,0.01,0,0.01,0,0.01V7.3c0,0.07,0.18,2.75,0.11,5.45l-0.02,3.51
		v1.09l-0.15,38.8c0.22,3.21,1.92,7.15,8.76,7.76c1.25,0.02,2.53-0.11,3.76-0.38c0.36-0.09,0.66-0.16,0.94-0.24
		c5.46-1.61,9.31-5.99,9.81-11.18c0.03-0.29,0.04-0.59,0.05-0.89l0.01-0.24c-0.01-0.22-0.01-0.49-0.03-0.77
		c-0.02-0.37,0.17-0.73,0.49-0.94c0.18-0.11,0.35-0.22,0.53-0.33c3.57-2.37,5.75-6.33,5.84-10.6C63.18,36.3,62.77,34.34,61.91,32.51
		z M37.96,20.84c1.19-1.02,2.84-1.42,4.89-1.16c0.56,0.07,0.97,0.59,0.9,1.15c-0.07,0.56-0.59,0.97-1.15,0.9
		c-1.46-0.18-2.57,0.05-3.3,0.67c-0.95,0.81-1.01,2.03-1.01,2.04c-0.02,0.55-0.48,0.99-1.03,0.99h-0.04
		c-0.56-0.02-1.01-0.5-0.99-1.06C36.23,24.29,36.32,22.24,37.96,20.84z M38.4,39.06c-0.95,0.8-1.01,2.03-1.01,2.04
		c-0.02,0.55-0.48,0.99-1.03,0.99h-0.04c-0.56-0.02-1.01-0.5-0.99-1.06c0-0.1,0.1-2.14,1.74-3.53c1.19-1.02,2.84-1.42,4.89-1.16
		c0.56,0.06,0.97,0.59,0.9,1.15c-0.07,0.56-0.59,0.97-1.15,0.89C40.24,38.2,39.13,38.43,38.4,39.06z M46.77,55.66
		c-0.99,0.92-2.34,1.38-4.01,1.38c-0.27,0-0.54-0.01-0.82-0.04c-0.57-0.04-0.99-0.54-0.95-1.11c0.04-0.57,0.55-0.99,1.12-0.95
		c1.46,0.13,2.55-0.15,3.27-0.8c0.9-0.84,0.94-2.07,0.94-2.09c0-0.56,0.46-1.02,1.03-1.03c0.56,0,1.03,0.47,1.03,1.03
		C48.38,52.16,48.36,54.2,46.77,55.66z M55.05,41.98c-0.1,0-2.14-0.02-3.6-1.6c-1.06-1.16-1.51-2.79-1.34-4.84
		c0.04-0.56,0.55-0.99,1.12-0.95c0.56,0.05,0.99,0.55,0.94,1.12c-0.12,1.45,0.15,2.54,0.79,3.26c0.84,0.92,2.1,0.95,2.11,0.95
		c0.56,0.01,1.02,0.47,1.02,1.04C56.07,41.53,55.61,41.98,55.05,41.98z"></path>
</svg>
