<svg xmlns="http://www.w3.org/2000/svg" id="processor-brain" viewBox="0 0 64 64"><path fill="#34495c" d="M28.66 2.14c-.2-.2-.44-.39-.68-.57A7.47 7.47 0 0 0 23.36.1c-1.98.04-3.83.86-5.21 2.29-1.37 1.44-2.11 3.32-2.05 5.31q.015.795.18 1.5c.18.47 1.6 3.83 5.57 3.32.57-.07 1.09.32 1.16.89.06.56-.33 1.08-.89 1.15-.37.04-.72.06-1.06.06-3.58 0-5.66-2.43-6.49-4.2-.34-.03-.68-.05-1.03-.05h-.21c-2.5.05-4.82 1.09-6.56 2.88a9.36 9.36 0 0 0-2.59 6.68c.04 1.89.65 3.7 1.74 5.22l.04.05c2.64-1.78 7.61-3.24 12.05 1.17.4.39.4 1.05.01 1.46-.2.2-.47.3-.73.3-.27 0-.52-.1-.72-.3-4.91-4.83-9.92-.61-10.14-.43-.01.01-.02.01-.03.02s-.01.02-.02.03c-.21.15-.37.28-.53.39l-.2.17c-1.52 1.27-2.75 2.84-3.56 4.58-.86 1.84-1.27 3.8-1.22 5.82.1 4.27 2.28 8.24 5.84 10.6.18.12.35.22.53.34.32.19.51.55.49.94-.02.27-.02.53-.03.81l.01.2c.01.3.02.61.05.89.5 5.17 4.35 9.56 9.79 11.17.3.1.6.16.88.23 1.3.3 2.58.43 3.9.39 5.35-.48 8.26-3.12 8.58-7.87l.14-38.79v-1.09l.02-3.52v-.01c.07-2.6-.11-5.27-.11-5.3-.04-2.02-.85-3.88-2.3-5.26m-7.51 17.64c2.04-.26 3.69.14 4.89 1.15 1.64 1.39 1.74 3.45 1.74 3.53.02.57-.43 1.05-.99 1.08h-.04c-.54 0-1-.44-1.03-.99 0-.03-.09-1.27-1.02-2.05-.73-.62-1.84-.85-3.29-.67-.56.07-1.08-.33-1.15-.9-.08-.58.33-1.09.89-1.15m-8.6 20.69c-.73.79-1.61 1.19-2.31 1.39s-1.23.2-1.29.2c-.57 0-1.03-.46-1.03-1.03 0-.56.46-1.02 1.02-1.03.04 0 1.28-.03 2.11-.95.64-.7.9-1.8.79-3.26-.05-.56.37-1.06.94-1.11.55-.05 1.08.37 1.12.94.16 2.07-.28 3.7-1.35 4.85m9.51 16.63c-.28.02-.55.03-.82.03-1.67 0-3.02-.46-4.01-1.37-1.59-1.46-1.61-3.51-1.61-3.6 0-.57.47-1.03 1.03-1.03.57 0 1.03.46 1.03 1.02 0 .04.04 1.28.95 2.1.71.65 1.81.92 3.26.8.57-.05 1.08.37 1.12.94.04.56-.38 1.07-.95 1.11m5.63-14.92h-.04c-.54 0-1-.44-1.03-.99 0-.03-.09-1.28-1.02-2.07-.73-.61-1.84-.83-3.29-.66-.56.07-1.08-.33-1.15-.9-.06-.56.34-1.08.9-1.15 2.04-.24 3.69.15 4.89 1.16 1.64 1.39 1.74 3.45 1.74 3.53.01.58-.44 1.06-1 1.08"/><path fill="#00aeef" d="M61.91 32.51c-.81-1.75-2.03-3.32-3.52-4.56-.1-.09-.16-.14-.23-.19-.16-.13-.34-.26-.51-.39-.01 0-.02-.02-.03-.03s-.03-.01-.04-.02c-.21-.18-5.26-4.36-10.11.44-.2.2-.46.3-.72.3s-.55-.12-.75-.32c-.39-.4-.39-1.05.01-1.46 4.44-4.41 9.41-2.94 12.06-1.17l.05-.07a9.3 9.3 0 0 0 1.71-5.19c.05-2.49-.86-4.86-2.59-6.67a9.37 9.37 0 0 0-6.56-2.9c-.42-.01-.83.02-1.25.06-.84 1.78-2.92 4.2-6.49 4.2-.34 0-.69-.02-1.06-.06-.56-.07-.96-.6-.89-1.16s.6-.96 1.16-.89c3.97.51 5.4-2.85 5.57-3.31.11-.48.17-.97.18-1.51a7.37 7.37 0 0 0-2.05-5.3 7.37 7.37 0 0 0-5.21-2.3c-1.67-.03-3.3.49-4.62 1.48-.24.18-.48.37-.69.57a7.4 7.4 0 0 0-2.3 5.21v.03c0 .07.18 2.75.11 5.45l-.02 3.51v1.09l-.15 38.8c.22 3.21 1.92 7.15 8.76 7.76 1.25.02 2.53-.11 3.76-.38.36-.09.66-.16.94-.24 5.46-1.61 9.31-5.99 9.81-11.18.03-.29.04-.59.05-.89l.01-.24c-.01-.22-.01-.49-.03-.77-.02-.37.17-.73.49-.94.18-.11.35-.22.53-.33 3.57-2.37 5.75-6.33 5.84-10.6.05-2.04-.36-4-1.22-5.83M37.96 20.84c1.19-1.02 2.84-1.42 4.89-1.16.56.07.97.59.9 1.15s-.59.97-1.15.9c-1.46-.18-2.57.05-3.3.67-.95.81-1.01 2.03-1.01 2.04-.02.55-.48.99-1.03.99h-.04c-.56-.02-1.01-.5-.99-1.06 0-.08.09-2.13 1.73-3.53m.44 18.22c-.95.8-1.01 2.03-1.01 2.04-.02.55-.48.99-1.03.99h-.04c-.56-.02-1.01-.5-.99-1.06 0-.1.1-2.14 1.74-3.53 1.19-1.02 2.84-1.42 4.89-1.16.56.06.97.59.9 1.15s-.59.97-1.15.89c-1.47-.18-2.58.05-3.31.68m8.37 16.6c-.99.92-2.34 1.38-4.01 1.38-.27 0-.54-.01-.82-.04-.57-.04-.99-.54-.95-1.11s.55-.99 1.12-.95c1.46.13 2.55-.15 3.27-.8.9-.84.94-2.07.94-2.09 0-.56.46-1.02 1.03-1.03.56 0 1.03.47 1.03 1.03 0 .11-.02 2.15-1.61 3.61m8.28-13.68c-.1 0-2.14-.02-3.6-1.6-1.06-1.16-1.51-2.79-1.34-4.84.04-.56.55-.99 1.12-.95.56.05.99.55.94 1.12-.12 1.45.15 2.54.79 3.26.84.92 2.1.95 2.11.95.56.01 1.02.47 1.02 1.04-.02.57-.48 1.02-1.04 1.02"/></svg>